<svg id="Capa_1" enable-background="new 0 0 512 512" height="512" viewBox="0 0 512 512" width="512" xmlns="http://www.w3.org/2000/svg"><g><path d="m437.02 74.98c-48.353-48.351-112.64-74.98-181.02-74.98l-20.016 256 20.016 256c68.38 0 132.667-26.629 181.02-74.98 48.351-48.353 74.98-112.64 74.98-181.02s-26.629-132.667-74.98-181.02z" fill="#4895ff"/><path d="m74.98 74.98c-48.351 48.353-74.98 112.64-74.98 181.02s26.629 132.667 74.98 181.02c48.353 48.351 112.64 74.98 181.02 74.98v-512c-68.38 0-132.667 26.629-181.02 74.98z" fill="#5ecef4"/><path d="m120.731 241h-90.229c2.841-43.646 18.046-84.895 43.945-119.659 17.568 9.226 37.54 16.977 59.213 23.085-7.506 29.92-11.921 62.636-12.929 96.574z" fill="#9ee2f8"/><path d="m120.731 271c1.008 33.938 5.423 66.654 12.928 96.573-21.673 6.108-41.645 13.859-59.213 23.085-25.898-34.764-41.103-76.012-43.944-119.658z" fill="#9ee2f8"/><path d="m391.269 271h90.229c-2.841 43.646-18.046 84.894-43.944 119.659-17.568-9.226-37.54-16.977-59.213-23.085 7.505-29.92 11.92-62.635 12.928-96.574z" fill="#5ecef4"/><path d="m391.269 241c-1.008-33.939-5.423-66.654-12.928-96.574 21.672-6.108 41.644-13.859 59.212-23.085 25.899 34.764 41.103 76.013 43.945 119.659z" fill="#5ecef4"/><path d="m417.472 97.901c-14.333 6.99-30.336 12.957-47.586 17.802-4.45-13.052-9.544-25.386-15.263-36.825-6.787-13.574-14.263-25.504-22.294-35.725 31.034 11.105 59.478 29.042 83.477 53.04.563.564 1.109 1.14 1.666 1.708z" fill="#5ecef4"/><path d="m179.671 43.154c-8.031 10.221-15.507 22.151-22.294 35.725-5.719 11.439-10.814 23.772-15.264 36.825-17.25-4.845-33.254-10.813-47.586-17.802.557-.568 1.103-1.144 1.666-1.708 23.999-23.998 52.445-41.935 83.478-53.04z" fill="#9ee2f8"/><path d="m94.527 414.099c14.333-6.99 30.336-12.958 47.586-17.802 4.45 13.052 9.544 25.386 15.264 36.825 6.787 13.574 14.263 25.504 22.294 35.725-31.034-11.105-59.479-29.042-83.478-53.04-.563-.564-1.109-1.14-1.666-1.708z" fill="#9ee2f8"/><g fill="#5ecef4"><path d="m332.329 468.846c8.031-10.221 15.507-22.15 22.294-35.725 5.719-11.439 10.813-23.773 15.263-36.825 17.25 4.845 33.253 10.813 47.586 17.802-.557.568-1.103 1.144-1.667 1.708-23.998 23.998-52.442 41.934-83.476 53.04z"/><path d="m276.016 271v80.926c25.315 1.019 49.96 3.934 73.187 8.626 6.948-27.596 11.063-57.935 12.054-89.552z"/><path d="m276.016 381.946v95.568c18.937-8.424 37.105-28.471 51.774-57.809 4.726-9.452 8.989-19.599 12.769-30.327-20.471-3.975-42.184-6.483-64.543-7.432z"/><path d="m276.016 241h85.241c-.992-31.617-5.106-61.957-12.054-89.553-23.227 4.692-47.872 7.607-73.187 8.626z"/><path d="m276.016 130.054c22.359-.949 44.072-3.458 64.543-7.432-3.78-10.728-8.043-20.874-12.769-30.326-14.669-29.338-32.838-49.385-51.774-57.809z"/></g><path d="m235.984 160.073c-25.314-1.019-49.96-3.934-73.187-8.626-6.948 27.596-11.063 57.936-12.054 89.553h85.241z" fill="#9ee2f8"/><path d="m235.984 271h-85.241c.992 31.617 5.106 61.957 12.054 89.552 23.227-4.692 47.872-7.607 73.187-8.626z" fill="#9ee2f8"/><path d="m235.984 381.946c-22.359.949-44.072 3.458-64.543 7.432 3.78 10.728 8.043 20.875 12.769 30.327 14.669 29.338 32.838 49.385 51.774 57.809z" fill="#9ee2f8"/><path d="m235.984 34.486c-18.936 8.424-37.105 28.471-51.774 57.809-4.726 9.452-8.989 19.598-12.769 30.326 20.472 3.975 42.185 6.483 64.543 7.432z" fill="#9ee2f8"/></g></svg>